<?xml version="1.0" ?><svg style="enable-background:new 0 0 256 256;" version="1.1" viewBox="0 0 256 256" xml:space="preserve" xmlns="http://www.w3.org/2000/svg" xmlns:xlink="http://www.w3.org/1999/xlink"><style type="text/css">
	.st0{fill:#00A388;}
	.st1{fill:#EA685E;stroke:#00886F;stroke-width:15;stroke-miterlimit:10;}
	.st2{fill:#E8E8E8;}
	.st3{fill:#FFFFFF;stroke:#00886F;stroke-width:15;stroke-miterlimit:10;}
	.st4{fill:#00886F;}
	.st5{fill:#FFFFFF;}
	.st6{fill:#CCCCCC;}
	.st7{fill:none;stroke:#00A388;stroke-width:4;stroke-miterlimit:10;}
	.st8{fill:#EA685E;}
	.st9{fill:#FFAB80;}
	.st10{fill:#2C3E50;}
	.st11{fill:#4B687F;}
	.st12{fill:none;stroke:#3E5063;stroke-width:4;stroke-miterlimit:10;}
	.st13{fill:#FFD766;}
	.st14{fill:#FFE6D3;}
	.st15{fill:#F09A79;}
	.st16{fill:#C91E01;}
	.st17{fill:#EA3B28;}
	.st18{fill:#0F627F;}
	.st19{fill:#005670;}
	.st20{filter:url(#Adobe_OpacityMaskFilter);}
	.st21{mask:url(#SVGID_2_);}
	.st22{fill:#8C623B;}
	.st23{fill:#E6E6E6;stroke:#005670;stroke-width:16;stroke-miterlimit:10;}
	.st24{opacity:0.6;}
	.st25{fill:#E6E6E6;}
	.st26{fill:#FFEC82;}
	.st27{fill:#FFCF3A;}
	.st28{filter:url(#Adobe_OpacityMaskFilter_1_);}
	.st29{mask:url(#SVGID_1_);}
	.st30{fill:#603813;}
	.st31{fill:#F2F2F2;}
	.st32{fill:#666666;}
</style><g id="Layer_2"><circle class="st2" cx="128" cy="128" r="120"/></g><g id="Layer_1"><g><g><path class="st16" d="M197.727417,124.780609c-0.169449-1.871223-1.650208-3.359344-3.522247-3.53698l-11.811752-1.112411     c-1.598648-0.147346-2.954987-1.267952-3.367538-2.82238c-1.208191-4.502052-2.991821-8.761002-5.268219-12.703156     c-0.803009-1.392365-0.640945-3.14653,0.383087-4.384186l7.574905-9.144081c1.200821-1.443932,1.186081-3.54435-0.01474-4.988281     c-2.675049-3.183357-5.614471-6.130157-8.790466-8.790459c-1.443939-1.208191-3.544342-1.215561-4.995636-0.01474     l-9.136719,7.574913c-1.245026,1.02401-2.991821,1.186089-4.391556,0.375717     c-3.934799-2.276398-8.201111-4.067406-12.703156-5.275589c-1.554443-0.412552-2.667679-1.768898-2.822388-3.367538     l-1.105042-11.804382c-0.176819-1.87122-1.664948-3.345436-3.536987-3.514877     c-2.048843-0.184177-4.118958-0.272579-6.219383-0.272579c-2.099602,0-4.17054,0.088402-6.218567,0.272579     c-1.871216,0.169441-3.360168,1.642841-3.53698,3.514877l-1.105049,11.804382     c-0.154709,1.59864-1.267128,2.954987-2.82238,3.367538c-4.502052,1.208191-8.768372,2.999191-12.703156,5.275589     c-1.399734,0.810371-3.146523,0.648293-4.391556-0.375717l-9.136719-7.574905     c-1.451294-1.200821-3.551712-1.193459-4.995644,0.014732c-3.175987,2.660301-6.116241,5.607925-8.790459,8.790466     c-1.200829,1.443932-1.215561,3.54435-0.014732,4.988281l7.574905,9.136711     c1.024017,1.245026,1.186089,2.999191,0.375717,4.391548c-2.284584,3.942169-4.067398,8.208473-5.268219,12.703163     c-0.419922,1.554436-1.775444,2.675034-3.374901,2.829742l-11.804386,1.105049     c-1.863853,0.176811-3.345436,1.66494-3.514877,3.52961C58.088406,126.821274,58,128.899582,58,131     c0,2.092224,0.088406,4.170532,0.272579,6.218567c0.169441,1.871216,1.650208,3.352798,3.514877,3.529602l11.804386,1.112427     c1.59864,0.147339,2.954979,1.267944,3.374901,2.822372c1.200821,4.50206,2.984451,8.761002,5.268219,12.703156     c0.810371,1.392365,0.6483,3.14653-0.375717,4.391556l-7.574905,9.137527     c-1.200829,1.443939-1.186089,3.551712,0.014732,4.988266c2.675034,3.189926,5.614471,6.130173,8.790459,8.790466     c1.443932,1.208191,3.54435,1.215561,4.995644,0.01474l9.136719-7.567535c1.245018-1.031372,2.991821-1.193451,4.384186-0.383087     c3.942154,2.277222,8.208473,4.060043,12.710526,5.260849c1.547066,0.419922,2.667671,1.768097,2.82238,3.374908     l1.105049,11.811768c0.176811,1.871216,1.66494,3.352798,3.53698,3.514877     c2.048851,0.184174,4.118965,0.279938,6.218567,0.279938c2.10041,0,4.17054-0.095764,6.219383-0.279938     c1.871216-0.162079,3.360168-1.642838,3.536987-3.514877l1.105042-11.811752     c0.154709-1.606827,1.274506-2.954987,2.822388-3.374908c4.502045-1.200806,8.768372-2.984451,12.710526-5.260849     c1.392365-0.810379,3.13916-0.6483,4.384186,0.383087l9.136719,7.567535c1.451294,1.200821,3.551712,1.193451,4.995636-0.01474     c3.175995-2.660309,6.116241-5.599731,8.790466-8.790466c1.200821-1.437378,1.215561-3.544342,0.01474-4.988266     l-7.574905-9.144089c-1.024033-1.237656-1.186096-2.984451-0.383087-4.384186     c2.277206-3.942154,4.060028-8.201096,5.268219-12.703156c0.412552-1.554443,1.76889-2.675034,3.367538-2.822372     l11.811752-1.112427c1.871216-0.176804,3.352798-1.657578,3.522247-3.529602     C197.911591,135.170547,198,133.093048,198,131.000824C197.999969,128.899582,197.911575,126.829453,197.727417,124.780609z      M127.998764,163.355042c-17.86824,0-32.362396-14.485977-32.362396-32.355042     c0-17.876427,14.493332-32.362411,32.362396-32.362411s32.362396,14.486794,32.362396,32.362396     C160.36116,148.868225,145.867828,163.355042,127.998764,163.355042z"/></g><g><path class="st17" d="M197.727417,118.780609c-0.169449-1.871223-1.650208-3.359344-3.522247-3.53698l-11.811752-1.112411     c-1.598648-0.147346-2.954987-1.267952-3.367538-2.82238c-1.208191-4.502052-2.991821-8.761002-5.268219-12.703156     c-0.803009-1.392365-0.640945-3.14653,0.383087-4.384186l7.574905-9.144081c1.200821-1.443932,1.186081-3.54435-0.01474-4.988281     c-2.675049-3.183357-5.614471-6.130157-8.790466-8.790459c-1.443939-1.208191-3.544342-1.215561-4.995636-0.01474     l-9.136719,7.574913c-1.245026,1.02401-2.991821,1.186089-4.391556,0.375717     c-3.934799-2.276398-8.201111-4.067406-12.703156-5.275589c-1.554443-0.412552-2.667679-1.768898-2.822388-3.367538     l-1.105042-11.804382c-0.176819-1.87122-1.664948-3.345436-3.536987-3.514877     c-2.048843-0.184177-4.118958-0.272579-6.219383-0.272579c-2.099602,0-4.17054,0.088402-6.218567,0.272579     c-1.871216,0.169441-3.360168,1.642841-3.53698,3.514877l-1.105049,11.804382     c-0.154709,1.59864-1.267128,2.954987-2.82238,3.367538c-4.502052,1.208191-8.768372,2.999191-12.703156,5.275589     c-1.399734,0.810371-3.146523,0.648293-4.391556-0.375717l-9.136719-7.574905     c-1.451294-1.200821-3.551712-1.193459-4.995644,0.014732c-3.175987,2.660301-6.116241,5.607925-8.790459,8.790466     c-1.200829,1.443932-1.215561,3.54435-0.014732,4.988281l7.574905,9.136711     c1.024017,1.245026,1.186089,2.999191,0.375717,4.391548c-2.284584,3.942169-4.067398,8.208473-5.268219,12.703163     c-0.419922,1.554436-1.775444,2.675034-3.374901,2.829742l-11.804386,1.105049     c-1.863853,0.176811-3.345436,1.66494-3.514877,3.52961C58.088406,120.821274,58,122.899582,58,125     c0,2.092224,0.088406,4.170532,0.272579,6.218567c0.169441,1.871216,1.650208,3.352798,3.514877,3.529602l11.804386,1.112427     c1.59864,0.147339,2.954979,1.267944,3.374901,2.822372c1.200821,4.50206,2.984451,8.761002,5.268219,12.703156     c0.810371,1.392365,0.6483,3.14653-0.375717,4.391556l-7.574905,9.137527     c-1.200829,1.443939-1.186089,3.551712,0.014732,4.988266c2.675034,3.189926,5.614471,6.130173,8.790459,8.790466     c1.443932,1.208191,3.54435,1.215561,4.995644,0.01474l9.136719-7.567535c1.245018-1.031372,2.991821-1.193451,4.384186-0.383087     c3.942154,2.277222,8.208473,4.060043,12.710526,5.260849c1.547066,0.419922,2.667671,1.768097,2.82238,3.374908     l1.105049,11.811768c0.176811,1.871216,1.66494,3.352798,3.53698,3.514877     c2.048851,0.184174,4.118965,0.279938,6.218567,0.279938c2.10041,0,4.17054-0.095764,6.219383-0.279938     c1.871216-0.162079,3.360168-1.642838,3.536987-3.514877l1.105042-11.811752     c0.154709-1.606827,1.274506-2.954987,2.822388-3.374908c4.502045-1.200806,8.768372-2.984451,12.710526-5.260849     c1.392365-0.810379,3.13916-0.6483,4.384186,0.383087l9.136719,7.567535c1.451294,1.200821,3.551712,1.193451,4.995636-0.01474     c3.175995-2.660309,6.116241-5.599731,8.790466-8.790466c1.200821-1.437378,1.215561-3.544342,0.01474-4.988266     l-7.574905-9.144089c-1.024033-1.237656-1.186096-2.984451-0.383087-4.384186     c2.277206-3.942154,4.060028-8.201096,5.268219-12.703156c0.412552-1.554443,1.76889-2.675034,3.367538-2.822372     l11.811752-1.112427c1.871216-0.176804,3.352798-1.657578,3.522247-3.529602     C197.911591,129.170547,198,127.093048,198,125.000824C197.999969,122.899574,197.911575,120.829453,197.727417,118.780609z      M127.998764,157.355042c-17.86824,0-32.362396-14.485977-32.362396-32.355042     c0-17.876427,14.493332-32.362411,32.362396-32.362411s32.362396,14.486794,32.362396,32.362404     C160.36116,142.868225,145.867828,157.355042,127.998764,157.355042z"/></g></g></g></svg>